# Blender v2.79 (sub 0) OBJ File: 'glass-1.blend'
# www.blender.org
mtllib glass-1.mtl
o Glasses
v -4.850516 -0.944409 0.781494
v -0.945402 -0.524160 1.442162
v -5.286278 0.172209 0.695504
v -1.998976 0.066983 1.436503
v -3.485214 -1.159016 1.199034
v -2.061612 -0.530357 1.273921
v -3.485214 0.255730 1.396073
v -4.248003 -1.143353 1.011142
v -4.248003 0.255730 1.208182
v -3.014728 0.255730 1.449048
v -5.222936 -0.483376 0.695504
v -2.528939 0.221491 1.449048
v -5.286278 0.307506 0.695504
v -1.998976 0.202280 1.436503
v -3.485214 0.391027 1.396073
v -4.248003 0.391027 1.208182
v -3.014728 0.391027 1.449048
v -2.528939 0.356789 1.449048
v -5.665936 0.172209 0.386309
v -5.654172 -0.483376 0.386309
v -5.665936 0.307506 0.386309
v -5.883797 0.234033 -4.523862
v -5.942258 0.534333 -4.681842
v -5.981250 0.119263 -1.709110
v -5.999599 0.251774 -3.195477
v -5.922596 -0.020301 -0.275719
v -6.039711 0.489958 -1.709110
v -5.363905 -0.552997 -6.596462
v -5.422366 -0.252696 -6.596462
v -3.014728 0.255730 1.364011
v -3.014728 0.391027 1.364011
v -2.528939 0.356789 1.364011
v -2.528939 0.221491 1.364011
v -5.288974 0.177665 0.610725
v -5.289797 0.307506 0.610467
v -4.248003 0.391027 1.123145
v -4.248003 0.255730 1.123145
v -3.485214 0.391027 1.311036
v -3.485214 0.255730 1.311036
v -1.998976 0.202280 1.351467
v -1.998976 0.066983 1.351467
v -5.372284 0.200633 0.329143
v -5.369946 0.332444 0.331491
v -5.220478 -0.471469 0.609627
v -5.307672 -0.450732 0.332229
v -5.600808 0.288615 -4.502707
v -5.093417 -0.484337 -6.535623
v -5.151877 -0.184037 -6.535623
v -5.659269 0.588916 -4.660688
v -5.624321 0.017677 -0.295228
v -5.698837 0.157241 -1.728619
v -5.717186 0.289752 -3.214985
v -5.757298 0.527936 -1.728619
v -2.030294 -0.231687 1.436503
v -2.014635 -0.082356 1.436503
v -1.827214 0.082490 1.512704
v -1.866372 -0.039079 1.512704
v -1.827214 0.217787 1.452967
v -1.816250 -0.039079 1.528970
v -1.827214 0.082490 1.454845
v -2.449620 -0.947546 1.241213
v -3.001312 -1.129790 1.252008
v 1.426768 -0.944409 0.781494
v 0.061465 -0.509194 1.396073
v 1.862530 0.172209 0.695504
v -1.424773 0.066983 1.436503
v 0.061465 -1.159016 1.199034
v -1.362137 -0.530357 1.273921
v 0.061465 0.255730 1.396073
v 0.824255 -1.143353 1.011142
v 0.824255 0.255730 1.208182
v -0.409021 0.255730 1.449048
v 1.799188 -0.483376 0.695504
v -0.894810 0.221491 1.449048
v 1.862530 0.307506 0.695504
v -1.424773 0.202280 1.436503
v 0.061465 0.391027 1.396073
v 0.824255 0.391027 1.208182
v -0.409021 0.391027 1.449048
v -0.894810 0.356789 1.449048
v 2.242188 0.172209 0.386309
v 2.230424 -0.483376 0.386309
v 2.242188 0.307506 0.386309
v 2.460048 0.234033 -4.523862
v 2.518509 0.534333 -4.681842
v 2.557501 0.119263 -1.709110
v 2.575850 0.251774 -3.195477
v 2.498847 -0.020301 -0.275719
v 2.615962 0.489958 -1.709110
v 1.940157 -0.552997 -6.596462
v 1.998618 -0.252696 -6.596462
v -0.409021 0.255730 1.364011
v -0.409021 0.391027 1.364011
v -0.894810 0.356789 1.364011
v -0.894810 0.221491 1.364011
v 1.865225 0.177665 0.610725
v 1.866049 0.307506 0.610467
v 0.824255 0.391027 1.123145
v 0.824255 0.255730 1.123145
v 0.061465 0.391027 1.311036
v 0.061465 0.255730 1.311036
v -1.424773 0.202280 1.351467
v -1.424773 0.066983 1.351467
v 1.948536 0.200633 0.329143
v 1.946198 0.332444 0.331491
v 1.796730 -0.471469 0.609626
v 1.883924 -0.450732 0.332229
v 2.177060 0.288615 -4.502707
v 1.669669 -0.484337 -6.535623
v 1.728129 -0.184037 -6.535623
v 2.235521 0.588916 -4.660688
v 2.200572 0.017677 -0.295228
v 2.275089 0.157241 -1.728619
v 2.293437 0.289752 -3.214985
v 2.333549 0.527936 -1.728619
v -1.711874 0.062547 1.567873
v -1.711874 0.233285 1.567873
v -1.711874 0.062547 1.482836
v -1.711874 0.233285 1.482836
v -1.393455 -0.231687 1.436503
v -1.409114 -0.082356 1.436503
v -1.596535 0.082490 1.512704
v -1.557377 -0.039079 1.512704
v -1.596535 0.217787 1.452967
v -1.607499 -0.039079 1.528970
v -1.596535 0.082490 1.454845
v -0.974129 -0.947546 1.241213
v -0.422436 -1.129790 1.252008
v 0.824255 -0.497862 1.208182
v -0.416496 -0.516298 1.449048
v -2.478347 -0.524160 1.442163
v -4.248003 -0.497862 1.208182
v -3.007253 -0.516298 1.449048
v -3.485214 -0.509194 1.396073
vn -0.0663 -0.4341 0.8984
vn 0.1345 0.7152 0.6859
vn -0.0152 0.7028 0.7111
vn -0.3016 -0.4282 0.8518
vn -0.4297 0.6620 0.6140
vn -0.2640 -0.3498 0.8988
vn -0.1585 -0.4330 0.8873
vn -0.2657 0.6879 0.6754
vn -0.1268 0.6928 0.7098
vn -0.0667 -0.4376 0.8967
vn -0.0761 0.7201 0.6896
vn -0.8088 -0.0065 0.5881
vn -0.6184 -0.7621 0.1917
vn -0.1389 -0.3165 0.9384
vn -0.6063 -0.7938 0.0470
vn -0.5452 0.3198 -0.7748
vn -0.3031 -0.7741 -0.5558
vn -0.7931 0.6059 0.0626
vn -0.6059 -0.7934 -0.0578
vn -0.8513 -0.5227 -0.0453
vn 0.0143 -0.7122 -0.7018
vn 0.1225 0.7212 -0.6818
vn -0.1304 -0.6725 -0.7285
vn 0.4451 0.8117 -0.3780
vn 0.2705 -0.7172 -0.6422
vn 0.9065 -0.1284 -0.4022
vn 0.1946 0.7449 -0.6382
vn 0.1217 -0.7219 -0.6811
vn 0.1217 0.7219 -0.6811
vn 0.2648 0.5884 -0.7639
vn 0.4196 -0.5309 -0.7362
vn 0.9428 0.0360 -0.3313
vn 0.6368 -0.6293 -0.4455
vn 0.7943 -0.5833 -0.1694
vn 0.8487 -0.4740 0.2345
vn 0.6090 0.5761 -0.5451
vn 0.4832 0.8718 -0.0807
vn 0.5811 0.8133 0.0298
vn 0.6732 0.7244 -0.1480
vn 0.6462 -0.6570 -0.3883
vn 0.7699 -0.5387 -0.3421
vn -0.7947 0.5605 -0.2329
vn 0.0000 0.6489 0.7609
vn 0.0000 0.7913 -0.6114
vn 0.1867 0.7294 -0.6581
vn 0.0640 0.7264 -0.6843
vn 0.7511 -0.6602 -0.0005
vn 0.7962 -0.5994 -0.0822
vn -0.6832 -0.7280 -0.0561
vn -0.6398 0.6124 0.4642
vn -0.0211 -0.2614 0.9650
vn 0.0000 -0.5402 -0.8415
vn -0.4225 0.0507 0.9049
vn 0.0000 -0.3762 0.9265
vn -0.3984 0.0267 0.9168
vn 0.2850 -0.0224 0.9583
vn -0.0558 -0.0528 0.9970
vn -0.2612 -0.3683 0.8922
vn 0.3743 -0.2331 -0.8975
vn 0.0663 -0.4341 0.8984
vn 0.0152 0.7028 0.7111
vn -0.1345 0.7152 0.6859
vn 0.3016 -0.4282 0.8518
vn 0.2640 -0.3498 0.8988
vn 0.4297 0.6620 0.6140
vn 0.1585 -0.4330 0.8873
vn 0.2657 0.6879 0.6754
vn 0.1268 0.6928 0.7098
vn 0.0667 -0.4376 0.8967
vn 0.0761 0.7201 0.6896
vn 0.8088 -0.0065 0.5881
vn 0.1389 -0.3165 0.9384
vn 0.6184 -0.7621 0.1917
vn 0.6063 -0.7938 0.0470
vn 0.3031 -0.7741 -0.5558
vn 0.5452 0.3198 -0.7748
vn 0.7931 0.6059 0.0626
vn 0.8513 -0.5227 -0.0453
vn 0.6059 -0.7934 -0.0578
vn -0.0143 -0.7122 -0.7018
vn 0.1304 -0.6725 -0.7285
vn -0.1225 0.7212 -0.6818
vn -0.4451 0.8117 -0.3780
vn -0.9065 -0.1284 -0.4022
vn -0.2705 -0.7172 -0.6422
vn -0.1946 0.7449 -0.6382
vn -0.1217 -0.7219 -0.6811
vn -0.1217 0.7219 -0.6811
vn -0.4196 -0.5309 -0.7362
vn -0.2648 0.5884 -0.7639
vn -0.9428 0.0360 -0.3313
vn -0.6368 -0.6293 -0.4455
vn -0.7943 -0.5833 -0.1694
vn -0.8487 -0.4740 0.2345
vn -0.4832 0.8718 -0.0807
vn -0.6090 0.5761 -0.5451
vn -0.5811 0.8133 0.0298
vn -0.6462 -0.6570 -0.3883
vn -0.6732 0.7244 -0.1480
vn -0.7699 -0.5387 -0.3421
vn 0.7947 0.5605 -0.2329
vn -0.1867 0.7294 -0.6581
vn -0.0640 0.7264 -0.6843
vn -0.7962 -0.5994 -0.0822
vn -0.7511 -0.6602 -0.0005
vn 0.6832 -0.7280 -0.0561
vn 0.6398 0.6124 0.4642
vn 0.0211 -0.2614 0.9650
vn 0.4225 0.0507 0.9049
vn 0.3984 0.0267 0.9168
vn 0.0558 -0.0528 0.9970
vn -0.2850 -0.0224 0.9583
vn 0.2613 -0.3683 0.8922
vn -0.3743 -0.2331 -0.8975
vn -0.4445 -0.2280 0.8663
vn -0.3453 -0.1327 0.9290
vn -0.1721 -0.1464 0.9741
vn 0.3453 -0.1327 0.9290
vn -0.0021 -0.3002 0.9539
vn -0.0362 -0.1697 0.9848
vn 0.1207 -0.2617 0.9575
vn 0.0362 -0.1697 0.9848
vn -0.1207 -0.2617 0.9575
vn 0.3301 -0.4424 0.8339
vn 0.1591 -0.3712 0.9148
vn 0.4445 -0.2280 0.8663
vn 0.3240 -0.2762 0.9048
vn 0.1721 -0.1464 0.9741
vn -0.1591 -0.3712 0.9148
vn -0.3301 -0.4424 0.8339
vn 0.0021 -0.3002 0.9539
vn 0.1642 -0.2866 0.9438
vn -0.1642 -0.2866 0.9438
vn -0.3240 -0.2762 0.9048
usemtl frame
s 1
f 10//1 18//2 17//3
f 9//4 13//5 3//6
f 7//7 16//8 9//4
f 10//1 15//9 7//7
f 12//10 14//11 18//2
f 13//5 19//12 3//6
f 3//6 20//13 11//14
f 22//15 29//16 28//17
f 27//18 24//19 26//20
f 30//21 32//22 33//23
f 35//24 37//25 34//26
f 36//27 39//28 37//25
f 38//29 30//21 39//28
f 33//23 40//30 41//31
f 42//32 35//24 34//26
f 45//33 34//26 44//34
f 46//35 48//36 49//37
f 53//38 43//39 50//40
f 29//16 47//41 28//17
f 17//3 38//29 15//9
f 7//7 30//21 10//1
f 29//16 49//37 48//36
f 15//9 36//27 16//8
f 27//18 49//37 23//42
f 117//43 119//44 58//45
f 28//17 46//35 22//15
f 18//2 31//46 17//3
f 26//20 45//33 20//13
f 9//4 39//28 7//7
f 14//11 32//22 18//2
f 24//19 52//47 51//48
f 10//1 33//23 12//10
f 25//49 46//35 52//47
f 3//6 44//34 34//26
f 21//50 35//24 43//39
f 3//6 37//25 9//4
f 24//19 50//40 26//20
f 12//10 41//31 4//51
f 27//18 43//39 53//38
f 13//5 36//27 35//24
f 20//13 44//34 11//14
f 58//45 119//44 118//52
f 56//53 116//54 117//43
f 116//54 56//53 57//55
f 57//55 55//56 54//57
f 57//55 56//53 55//56
f 56//53 4//51 55//56
f 57//55 54//57 59//58
f 55//56 41//31 4//51
f 116//54 59//58 118//52
f 59//58 60//59 118//52
f 54//57 59//58 41//31
f 9//4 16//8 13//5
f 10//1 12//10 18//2
f 7//7 15//9 16//8
f 10//1 17//3 15//9
f 12//10 4//51 14//11
f 13//5 21//50 19//12
f 3//6 19//12 20//13
f 22//15 23//42 29//16
f 26//20 20//13 19//12
f 19//12 21//50 26//20
f 21//50 27//18 26//20
f 27//18 23//42 25//49
f 23//42 22//15 25//49
f 27//18 25//49 24//19
f 30//21 31//46 32//22
f 35//24 36//27 37//25
f 36//27 38//29 39//28
f 38//29 31//46 30//21
f 33//23 32//22 40//30
f 42//32 43//39 35//24
f 45//33 42//32 34//26
f 46//35 47//41 48//36
f 42//32 45//33 50//40
f 51//48 52//47 53//38
f 52//47 46//35 49//37
f 53//38 52//47 49//37
f 42//32 50//40 43//39
f 50//40 51//48 53//38
f 29//16 48//36 47//41
f 17//3 31//46 38//29
f 7//7 39//28 30//21
f 29//16 23//42 49//37
f 15//9 38//29 36//27
f 27//18 53//38 49//37
f 58//45 40//30 14//11
f 14//11 117//43 58//45
f 28//17 47//41 46//35
f 18//2 32//22 31//46
f 26//20 50//40 45//33
f 9//4 37//25 39//28
f 14//11 40//30 32//22
f 24//19 25//49 52//47
f 10//1 30//21 33//23
f 25//49 22//15 46//35
f 3//6 11//14 44//34
f 21//50 13//5 35//24
f 3//6 34//26 37//25
f 24//19 51//48 50//40
f 12//10 33//23 41//31
f 27//18 21//50 43//39
f 13//5 16//8 36//27
f 20//13 45//33 44//34
f 60//59 58//45 118//52
f 41//31 40//30 58//45
f 117//43 14//11 56//53
f 14//11 4//51 56//53
f 55//56 54//57 41//31
f 116//54 57//55 59//58
f 59//58 41//31 60//59
f 60//59 41//31 58//45
f 72//60 79//61 80//62
f 71//63 65//64 75//65
f 69//66 71//63 78//67
f 72//60 69//66 77//68
f 74//69 80//62 76//70
f 75//65 65//64 81//71
f 65//64 73//72 82//73
f 84//74 90//75 91//76
f 89//77 88//78 86//79
f 92//80 95//81 94//82
f 97//83 96//84 99//85
f 98//86 99//85 101//87
f 100//88 101//87 92//80
f 95//81 103//89 102//90
f 104//91 96//84 97//83
f 107//92 106//93 96//84
f 108//94 111//95 110//96
f 115//97 112//98 105//99
f 91//76 90//75 109//100
f 79//61 77//68 100//88
f 69//66 72//60 92//80
f 91//76 110//96 111//95
f 77//68 78//67 98//86
f 89//77 85//101 111//95
f 117//43 124//102 119//44
f 90//75 84//74 108//94
f 80//62 79//61 93//103
f 88//78 82//73 107//92
f 71//63 69//66 101//87
f 76//70 80//62 94//82
f 86//79 113//104 114//105
f 72//60 74//69 95//81
f 87//106 114//105 108//94
f 65//64 96//84 106//93
f 83//107 105//99 97//83
f 65//64 71//63 99//85
f 86//79 88//78 112//98
f 74//69 66//108 103//89
f 89//77 115//97 105//99
f 75//65 97//83 98//86
f 82//73 73//72 106//93
f 124//102 118//52 119//44
f 122//109 117//43 116//54
f 116//54 123//110 122//109
f 123//110 120//111 121//112
f 123//110 121//112 122//109
f 122//109 121//112 66//108
f 123//110 125//113 120//111
f 121//112 66//108 103//89
f 116//54 118//52 125//113
f 125//113 118//52 126//114
f 120//111 103//89 125//113
f 71//63 75//65 78//67
f 72//60 80//62 74//69
f 69//66 78//67 77//68
f 72//60 77//68 79//61
f 74//69 76//70 66//108
f 75//65 81//71 83//107
f 65//64 82//73 81//71
f 84//74 91//76 85//101
f 88//78 81//71 82//73
f 81//71 88//78 83//107
f 83//107 88//78 89//77
f 89//77 87//106 85//101
f 85//101 87//106 84//74
f 89//77 86//79 87//106
f 92//80 94//82 93//103
f 97//83 99//85 98//86
f 98//86 101//87 100//88
f 100//88 92//80 93//103
f 95//81 102//90 94//82
f 104//91 97//83 105//99
f 107//92 96//84 104//91
f 108//94 110//96 109//100
f 104//91 112//98 107//92
f 113//104 115//97 114//105
f 114//105 111//95 108//94
f 115//97 111//95 114//105
f 104//91 105//99 112//98
f 112//98 115//97 113//104
f 91//76 109//100 110//96
f 79//61 100//88 93//103
f 69//66 92//80 101//87
f 91//76 111//95 85//101
f 77//68 98//86 100//88
f 89//77 111//95 115//97
f 124//102 76//70 102//90
f 76//70 124//102 117//43
f 90//75 108//94 109//100
f 80//62 93//103 94//82
f 88//78 107//92 112//98
f 71//63 101//87 99//85
f 76//70 94//82 102//90
f 86//79 114//105 87//106
f 72//60 95//81 92//80
f 87//106 108//94 84//74
f 65//64 106//93 73//72
f 83//107 97//83 75//65
f 65//64 99//85 96//84
f 86//79 112//98 113//104
f 74//69 103//89 95//81
f 89//77 105//99 83//107
f 75//65 98//86 78//67
f 82//73 106//93 107//92
f 126//114 118//52 124//102
f 103//89 124//102 102//90
f 117//43 122//109 76//70
f 76//70 122//109 66//108
f 121//112 103//89 120//111
f 116//54 125//113 123//110
f 125//113 126//114 103//89
f 126//114 124//102 103//89
usemtl glass
f 1//115 132//116 11//14
f 134//117 10//1 7//7
f 132//116 7//7 9//4
f 54//57 55//56 12//10
f 73//72 71//63 129//118
f 134//117 62//119 133//120
f 12//10 133//120 131//121
f 130//122 74//69 2//123
f 6//124 131//121 61//125
f 63//126 129//118 70//127
f 72//60 64//128 69//66
f 69//66 129//118 71//63
f 127//129 2//123 68//130
f 64//128 128//131 67//132
f 120//111 74//69 121//112
f 130//122 127//129 128//131
f 129//118 67//132 70//127
f 11//14 9//4 3//6
f 132//116 5//133 134//117
f 133//120 61//125 131//121
f 1//115 8//134 132//116
f 134//117 133//120 10//1
f 132//116 134//117 7//7
f 4//51 12//10 55//56
f 12//10 131//121 54//57
f 131//121 6//124 54//57
f 73//72 65//64 71//63
f 134//117 5//133 62//119
f 12//10 10//1 133//120
f 130//122 72//60 74//69
f 63//126 73//72 129//118
f 72//60 130//122 64//128
f 69//66 64//128 129//118
f 64//128 130//122 128//131
f 120//111 68//130 2//123
f 2//123 74//69 120//111
f 74//69 66//108 121//112
f 130//122 2//123 127//129
f 129//118 64//128 67//132
f 11//14 132//116 9//4
f 132//116 8//134 5//133
f 133//120 62//119 61//125
